<svg width="19" height="20" viewBox="0 0 19 20" fill="none" xmlns="http://www.w3.org/2000/svg">
<path d="M12.7843 0.2771H5.89434C2.72381 0.2771 0.15271 2.94258 0.15271 6.22948V13.3723C0.15271 16.6592 2.72381 19.3247 5.89434 19.3247H12.7843C15.9548 19.3247 18.5259 16.6592 18.5259 13.3723V6.22948C18.5259 2.94258 15.9548 0.2771 12.7843 0.2771ZM16.8035 13.3723C16.8035 15.6699 15.0006 17.539 12.7843 17.539H5.89434C3.67807 17.539 1.8752 15.6699 1.8752 13.3723V6.22948C1.8752 3.93187 3.67807 2.06282 5.89434 2.06282H12.7843C15.0006 2.06282 16.8035 3.93187 16.8035 6.22948V13.3723Z" fill="white"/>
<path d="M9.33946 5.03906C6.80277 5.03906 4.74612 7.17121 4.74612 9.80095C4.74612 12.4308 6.80277 14.5629 9.33946 14.5629C11.8762 14.5629 13.9328 12.4308 13.9328 9.80095C13.9328 7.17121 11.8762 5.03906 9.33946 5.03906ZM9.33946 12.7771C7.75703 12.7771 6.46861 11.4414 6.46861 9.80095C6.46861 8.1593 7.75703 6.82478 9.33946 6.82478C10.9219 6.82478 12.2103 8.1593 12.2103 9.80095C12.2103 11.4414 10.9219 12.7771 9.33946 12.7771Z" fill="white"/>
<path d="M14.2773 5.31616C14.6153 5.31616 14.8894 5.03207 14.8894 4.68164C14.8894 4.33121 14.6153 4.04712 14.2773 4.04712C13.9393 4.04712 13.6653 4.33121 13.6653 4.68164C13.6653 5.03207 13.9393 5.31616 14.2773 5.31616Z" fill="white"/>
</svg>
