<svg width="19" height="16" viewBox="0 0 19 16" fill="none" xmlns="http://www.w3.org/2000/svg">
<path d="M18.9326 1.89489C18.2493 2.2056 17.5213 2.41155 16.7623 2.51155C17.5432 2.02822 18.1392 1.2687 18.4194 0.35322C17.6913 0.80322 16.8874 1.12108 16.0308 1.29846C15.3395 0.535363 14.3542 0.0627441 13.2794 0.0627441C11.194 0.0627441 9.51517 1.81751 9.51517 3.9687C9.51517 4.27822 9.54043 4.57584 9.60244 4.85917C6.47097 4.70084 3.70006 3.14489 1.83862 0.774649C1.51365 1.35917 1.32303 2.02822 1.32303 2.74846C1.32303 4.10084 1.9948 5.29965 2.99613 5.9937C2.39097 5.98179 1.79728 5.79965 1.29432 5.51274C1.29432 5.52465 1.29432 5.54012 1.29432 5.5556C1.29432 7.45322 2.59996 9.02939 4.31212 9.39244C4.00551 9.47939 3.67135 9.52101 3.32456 9.52101C3.08341 9.52101 2.83996 9.50672 2.61145 9.45434C3.09948 11.0008 4.48436 12.1377 6.13106 12.1746C4.84953 13.2139 3.22235 13.8401 1.46082 13.8401C1.15192 13.8401 0.855657 13.8258 0.559387 13.7865C2.22791 14.902 4.20532 15.5389 6.33776 15.5389C13.2691 15.5389 17.0586 9.58653 17.0586 4.42703C17.0586 4.25441 17.0528 4.08774 17.0448 3.92227C17.7923 3.37227 18.4205 2.68536 18.9326 1.89489Z" fill="white"/>
</svg>
