<svg width="233" height="17" viewBox="0 0 233 17" fill="none" xmlns="http://www.w3.org/2000/svg">
<path d="M2.02423 10.475C67.7629 14.0035 134.349 8.44434 199.884 4.83185C209.399 4.30737 219.078 4.103 228.543 3.15277C229.291 3.07769 231.338 2.69085 230.631 2.48601C229.136 2.05316 224.6 2.00098 223.875 1.98129C191.002 1.08835 157.706 3.03682 124.946 4.75023C88.7044 6.64571 52.499 9.68716 16.1593 10.384C15.7576 10.3917 2.31625 9.57044 2.44191 9.53082C8.74931 7.54196 18.6639 8.73468 25.1852 8.88097C56.6191 9.58608 88.0464 12.1991 119.442 13.6276C150.443 15.0381 181.198 15.0409 212.168 13.6755" stroke="#DC7C00" stroke-width="3" stroke-linecap="round"/>
</svg>
